<svg aria-hidden="true" style="position: absolute; width: 0; height: 0; overflow: hidden;" version="1.1" xmlns="http://www.w3.org/2000/svg" xmlns:xlink="http://www.w3.org/1999/xlink">
<defs>
<symbol id="icon-footer-heart" viewBox="0 0 34 32">
<path fill="#ff6b08" style="fill: var(--color1, #ff6b08)" d="M17.231 31.705l-2.412-2.412c-8.96-7.926-14.818-13.268-14.818-19.815 0-5.342 4.135-9.477 9.477-9.477 2.929 0 5.858 1.378 7.754 3.618 1.895-2.24 4.825-3.618 7.754-3.618 5.342 0 9.477 4.135 9.477 9.477 0 6.548-5.858 11.889-14.818 19.815l-2.412 2.412z"></path>
</symbol>
<symbol id="icon-linkedin" viewBox="0 0 32 32"><path d="M28 2H3.994C2.894 2 2 2.906 2 4.019v23.963c0 1.112.894 2.019 1.994 2.019H28c1.1 0 2-.906 2-2.019V4.019C30 2.907 29.1 2 28 2zM10.463 26h-4.15V12.637h4.156V26h-.006zM8.387 10.813a2.407 2.407 0 0 1 0-4.812 2.41 2.41 0 0 1 2.406 2.406 2.403 2.403 0 0 1-2.406 2.406zM26.019 26h-4.15v-6.5c0-1.55-.031-3.544-2.156-3.544-2.162 0-2.494 1.687-2.494 3.431v6.612h-4.15V12.636h3.981v1.825h.056c.556-1.05 1.912-2.156 3.931-2.156 4.2 0 4.981 2.769 4.981 6.369v7.325z"/>
</symbol>
<symbol id="icon-github" viewBox="0 0 32 32"><path d="M16 .395c-8.836 0-16 7.163-16 16 0 7.069 4.585 13.067 10.942 15.182.8.148 1.094-.347 1.094-.77 0-.381-.015-1.642-.022-2.979-4.452.968-5.391-1.888-5.391-1.888-.728-1.849-1.776-2.341-1.776-2.341-1.452-.993.11-.973.11-.973 1.606.113 2.452 1.649 2.452 1.649 1.427 2.446 3.743 1.739 4.656 1.33.143-1.034.558-1.74 1.016-2.14-3.554-.404-7.29-1.777-7.29-7.907 0-1.747.625-3.174 1.649-4.295-.166-.403-.714-2.03.155-4.234 0 0 1.344-.43 4.401 1.64a15.353 15.353 0 0 1 4.005-.539c1.359.006 2.729.184 4.008.539 3.054-2.07 4.395-1.64 4.395-1.64.871 2.204.323 3.831.157 4.234 1.026 1.12 1.647 2.548 1.647 4.295 0 6.145-3.743 7.498-7.306 7.895.574.497 1.085 1.47 1.085 2.963 0 2.141-.019 3.864-.019 4.391 0 .426.288.925 1.099.768C27.421 29.457 32 23.462 32 16.395c0-8.837-7.164-16-16-16z"/>
</symbol>
<symbol id="icon-search-icon"  viewBox="0 0 12 12" fill="none">
<path d="M5.5 9.5C7.70914 9.5 9.5 7.70914 9.5 5.5C9.5 3.29086 7.70914 1.5 5.5 1.5C3.29086 1.5 1.5 3.29086 1.5 5.5C1.5 7.70914 3.29086 9.5 5.5 9.5Z"   stroke-linecap="round" stroke-linejoin="round"/>
<path d="M10.5 10.5002L8.32501 8.3252" stroke-linecap="round" stroke-linejoin="round"/>
</symbol>
<symbol id="icon-close" viewBox="0 0 32 32">
<path stroke-linejoin="miter" stroke-linecap="butt" stroke-miterlimit="4" stroke-width="2.1333" d="M8.533 8.533l14.933 14.933"></path>
<path stroke-linejoin="miter" stroke-linecap="butt" stroke-miterlimit="4" stroke-width="2.1333" d="M8.533 23.467l14.933-14.933"></path>
</symbol>
<symbol fill="none" viewBox="0 0 23 23" id="film-icon" xmlns="http://www.w3.org/2000/svg">
<path d="M19.82 2H4.18A2.18 2.18 0 0 0 2 4.18v15.64A2.18 2.18 0 0 0 4.18 22h15.64A2.18 2.18 0 0 0 22 19.82V4.18A2.18 2.18 0 0 0 19.82 2ZM7 2v20M17 2v20M2 12h20M2 7h5M2 17h5M17 17h5M17 7h5" stroke="#818181" stroke-width="2" stroke-linecap="round" stroke-linejoin="round"></path>
</symbol>
<symbol id="non-auth-user" viewBox="0 0 60 60">
<path d="M28.887 18.754c0.291-1.165 0.446-2.358 0.446-3.554 0-8.087-6.579-14.667-14.667-14.667s-14.667 6.58-14.667 14.667c0 4.272 1.837 8.122 4.761 10.805l-0.014 0.012 0.475 0.401c0.030 0.025 0.062 0.046 0.092 0.071 0.254 0.211 0.518 0.412 0.787 0.606 0.085 0.061 0.17 0.123 0.255 0.182 0.285 0.197 0.579 0.383 0.878 0.561 0.065 0.038 0.13 0.075 0.195 0.113 0.327 0.186 0.661 0.362 1.003 0.523 0.025 0.012 0.050 0.022 0.075 0.034 1.114 0.518 2.303 0.898 3.547 1.123 0.033 0.006 0.066 0.012 0.099 0.018 0.386 0.067 0.776 0.12 1.172 0.156 0.048 0.004 0.097 0.007 0.145 0.011 0.395 0.032 0.793 0.053 1.196 0.053 1.74 0 3.442-0.308 5.068-0.908 1.273 1.531 3.19 2.508 5.332 2.508 3.823 0 6.933-3.11 6.933-6.933 0-2.412-1.239-4.538-3.113-5.78zM1.067 15.2c0-7.499 6.101-13.6 13.6-13.6s13.6 6.101 13.6 13.6c0 1.015-0.114 2.029-0.341 3.022-0.009-0.004-0.019-0.007-0.028-0.011-0.201-0.090-0.406-0.171-0.617-0.242-0.018-0.006-0.036-0.014-0.054-0.020-0.219-0.072-0.443-0.134-0.671-0.184-0.011-0.003-0.021-0.006-0.032-0.009-0.222-0.048-0.449-0.084-0.678-0.11-0.016-0.002-0.032-0.005-0.048-0.007-0.241-0.025-0.484-0.039-0.732-0.039-3.159 0-5.826 2.126-6.659 5.020-0.234-0.22-0.372-0.527-0.372-0.86v-1.577c0.106-0.13 0.216-0.276 0.329-0.436 0.585-0.825 1.053-1.743 1.395-2.732 0.675-0.321 1.112-0.994 1.112-1.754v-1.891c0-0.462-0.17-0.911-0.473-1.263v-2.489c0.028-0.277 0.126-1.839-1.004-3.127-0.983-1.122-2.574-1.69-4.729-1.69s-3.746 0.568-4.729 1.69c-1.13 1.289-1.032 2.851-1.004 3.127v2.489c-0.303 0.353-0.473 0.802-0.473 1.263v1.891c0 0.587 0.263 1.135 0.714 1.505 0.432 1.692 1.321 2.973 1.649 3.407v1.543c0 0.435-0.237 0.835-0.62 1.044l-4.217 2.3c-0.135 0.074-0.268 0.159-0.401 0.254-2.772-2.492-4.519-6.103-4.519-10.115zM13.656 28.758c-0.058-0.004-0.116-0.008-0.174-0.013-0.338-0.030-0.675-0.070-1.010-0.125-0.014-0.002-0.028-0.005-0.041-0.007-0.708-0.118-1.404-0.292-2.082-0.519-0.018-0.006-0.036-0.012-0.054-0.019-0.66-0.224-1.301-0.501-1.921-0.823-0.036-0.019-0.072-0.036-0.107-0.055-0.275-0.147-0.543-0.306-0.808-0.471-0.076-0.048-0.151-0.097-0.227-0.146-0.243-0.159-0.483-0.324-0.716-0.499-0.024-0.018-0.047-0.037-0.071-0.055 0.017-0.010 0.034-0.019 0.052-0.029l4.217-2.3c0.725-0.396 1.175-1.155 1.175-1.981v-1.922l-0.124-0.148c-0.011-0.013-1.161-1.405-1.599-3.315l-0.049-0.211-0.182-0.118c-0.257-0.166-0.41-0.443-0.41-0.742v-1.891c0-0.248 0.106-0.479 0.297-0.652l0.176-0.159v-2.971l-0.005-0.070c-0.002-0.013-0.159-1.295 0.745-2.325 0.772-0.878 2.093-1.325 3.928-1.325 1.827 0 3.145 0.443 3.918 1.315 0.902 1.019 0.755 2.326 0.754 2.337l-0.005 3.041 0.176 0.159c0.191 0.173 0.297 0.404 0.297 0.652v1.891c0 0.386-0.253 0.723-0.63 0.839l-0.266 0.082-0.085 0.265c-0.314 0.978-0.762 1.88-1.331 2.684-0.138 0.196-0.274 0.371-0.393 0.506l-0.132 0.151v1.973c0 0.846 0.463 1.608 1.21 1.998-0.028 0.255-0.046 0.513-0.046 0.775 0 0.156 0.005 0.311 0.015 0.466 0.004 0.055 0.011 0.109 0.017 0.164 0.005 0.051 0.010 0.102 0.015 0.153 0.005 0.048 0.008 0.097 0.014 0.144 0.012 0.091 0.030 0.18 0.046 0.27 0.011 0.061 0.019 0.123 0.031 0.184 0 0 0.001 0.004 0.002 0.006 0.003 0.016 0.008 0.031 0.011 0.047 0.017 0.078 0.036 0.155 0.055 0.233 0.013 0.054 0.024 0.108 0.038 0.161 0.013 0.047 0.029 0.092 0.043 0.139 0.018 0.062 0.037 0.123 0.058 0.184 0.013 0.038 0.022 0.077 0.036 0.115 0.037 0.107 0.080 0.213 0.123 0.318 0.001 0.002 0.001 0.003 0.002 0.004 0.033 0.080 0.067 0.158 0.102 0.237 0.026 0.058 0.053 0.116 0.081 0.174 0.018 0.038 0.034 0.076 0.053 0.114 0.012 0.025 0.027 0.048 0.039 0.073 0.045 0.087 0.092 0.172 0.141 0.256 0.014 0.025 0.027 0.051 0.042 0.076-1.434 0.498-2.921 0.75-4.43 0.75-0.338 0-0.675-0.017-1.011-0.042zM25.067 30.4c-1.953 0-3.681-0.963-4.748-2.434-0.044-0.061-0.084-0.123-0.126-0.185-0.029-0.043-0.059-0.084-0.086-0.127-0.023-0.037-0.045-0.074-0.068-0.111-0.024-0.039-0.045-0.080-0.068-0.12-0.037-0.065-0.076-0.129-0.11-0.195-0.025-0.049-0.047-0.099-0.071-0.148-0.006-0.013-0.012-0.027-0.019-0.041-0.040-0.084-0.082-0.166-0.118-0.252-0.019-0.045-0.034-0.092-0.052-0.138-0.041-0.106-0.083-0.212-0.118-0.321-0.017-0.051-0.029-0.103-0.044-0.154-0.005-0.016-0.009-0.031-0.013-0.047-0.030-0.106-0.059-0.213-0.083-0.322-0.007-0.034-0.013-0.068-0.020-0.102-0.006-0.032-0.013-0.065-0.019-0.097-0.022-0.118-0.040-0.238-0.055-0.358-0.002-0.014-0.003-0.028-0.005-0.042-0.005-0.044-0.012-0.087-0.015-0.131-0.017-0.179-0.028-0.359-0.028-0.542 0-0.168 0.011-0.334 0.025-0.498 0.015-0.157 0.036-0.319 0.065-0.49l0.039-0.231c0.563-2.652 2.921-4.647 5.737-4.647 0.238 0 0.475 0.018 0.71 0.047 0.054 0.006 0.106 0.017 0.159 0.025 0.195 0.029 0.388 0.068 0.579 0.117 0.040 0.010 0.080 0.020 0.12 0.031 0.47 0.132 0.925 0.321 1.353 0.567 1.757 1.014 2.945 2.909 2.945 5.080 0 3.235-2.632 5.867-5.867 5.867z"></path>
<path d="M27.707 21.894c-0.209-0.209-0.546-0.209-0.754 0l-1.886 1.885-1.886-1.885c-0.209-0.209-0.546-0.209-0.754 0s-0.209 0.546 0 0.754l1.886 1.885-1.886 1.885c-0.209 0.209-0.209 0.546 0 0.754 0.104 0.104 0.241 0.156 0.377 0.156s0.273-0.052 0.377-0.156l1.886-1.885 1.886 1.885c0.104 0.104 0.241 0.156 0.377 0.156s0.273-0.052 0.377-0.156c0.209-0.209 0.209-0.546 0-0.754l-1.886-1.885 1.886-1.885c0.208-0.209 0.208-0.546 0-0.754z"></path>
</symbol>
</defs>
</svg>
